<svg xmlns="http://www.w3.org/2000/svg" viewBox="0 0 180 408" width="180" height="408" font-family="ui-monospace,SFMono-Regular,Menlo,monospace">
<rect width="180" height="408" fill="#121218"/>
<text x="6" y="15" fill="#9a9aa8" font-size="11">3/3 機着地 · 5.4論理秒 · スローモーション×10.0</text>
<g transform="translate(0,22)">
<rect width="180" height="360" fill="#0e0e13"/>
<line x1="0" y1="0" x2="180" y2="0" stroke="#2a2a33"/>
<line x1="0" y1="18" x2="180" y2="18" stroke="#2a2a33"/>
<line x1="0" y1="36" x2="180" y2="36" stroke="#2a2a33"/>
<line x1="0" y1="54" x2="180" y2="54" stroke="#2a2a33"/>
<line x1="0" y1="72" x2="180" y2="72" stroke="#2a2a33"/>
<line x1="0" y1="90" x2="180" y2="90" stroke="#2a2a33"/>
<line x1="0" y1="108" x2="180" y2="108" stroke="#2a2a33"/>
<line x1="0" y1="126" x2="180" y2="126" stroke="#2a2a33"/>
<line x1="0" y1="144" x2="180" y2="144" stroke="#2a2a33"/>
<line x1="0" y1="162" x2="180" y2="162" stroke="#2a2a33"/>
<line x1="0" y1="180" x2="180" y2="180" stroke="#2a2a33"/>
<line x1="0" y1="198" x2="180" y2="198" stroke="#2a2a33"/>
<line x1="0" y1="216" x2="180" y2="216" stroke="#2a2a33"/>
<line x1="0" y1="234" x2="180" y2="234" stroke="#2a2a33"/>
<line x1="0" y1="252" x2="180" y2="252" stroke="#2a2a33"/>
<line x1="0" y1="270" x2="180" y2="270" stroke="#2a2a33"/>
<line x1="0" y1="288" x2="180" y2="288" stroke="#2a2a33"/>
<line x1="0" y1="306" x2="180" y2="306" stroke="#2a2a33"/>
<line x1="0" y1="324" x2="180" y2="324" stroke="#2a2a33"/>
<line x1="0" y1="342" x2="180" y2="342" stroke="#2a2a33"/>
<line x1="0" y1="360" x2="180" y2="360" stroke="#2a2a33"/>
<line x1="0" y1="0" x2="0" y2="360" stroke="#2a2a33"/>
<line x1="18" y1="0" x2="18" y2="360" stroke="#2a2a33"/>
<line x1="36" y1="0" x2="36" y2="360" stroke="#2a2a33"/>
<line x1="54" y1="0" x2="54" y2="360" stroke="#2a2a33"/>
<line x1="72" y1="0" x2="72" y2="360" stroke="#2a2a33"/>
<line x1="90" y1="0" x2="90" y2="360" stroke="#2a2a33"/>
<line x1="108" y1="0" x2="108" y2="360" stroke="#2a2a33"/>
<line x1="126" y1="0" x2="126" y2="360" stroke="#2a2a33"/>
<line x1="144" y1="0" x2="144" y2="360" stroke="#2a2a33"/>
<line x1="162" y1="0" x2="162" y2="360" stroke="#2a2a33"/>
<line x1="180" y1="0" x2="180" y2="360" stroke="#2a2a33"/>
<rect x="163" y="271" width="16" height="16" fill="#12246c"/>
<rect x="1" y="289" width="16" height="16" fill="#006c6c"/>
<rect x="19" y="289" width="16" height="16" fill="#006c6c"/>
<rect x="37" y="289" width="16" height="16" fill="#12246c"/>
<rect x="91" y="289" width="16" height="16" fill="#12246c"/>
<rect x="145" y="289" width="16" height="16" fill="#00631b"/>
<rect x="163" y="289" width="16" height="16" fill="#006c6c"/>
<rect x="1" y="307" width="16" height="16" fill="#6c1212"/>
<rect x="19" y="307" width="16" height="16" fill="#6c4300"/>
<rect x="37" y="307" width="16" height="16" fill="#6c6c00"/>
<rect x="73" y="307" width="16" height="16" fill="#6c4300"/>
<rect x="91" y="307" width="16" height="16" fill="#12246c"/>
<rect x="109" y="307" width="16" height="16" fill="#12246c"/>
<rect x="127" y="307" width="16" height="16" fill="#4c006c"/>
<rect x="145" y="307" width="16" height="16" fill="#4c006c"/>
<rect x="163" y="307" width="16" height="16" fill="#6c6c00"/>
<rect x="1" y="325" width="16" height="16" fill="#12246c"/>
<rect x="19" y="325" width="16" height="16" fill="#006c6c"/>
<rect x="37" y="325" width="16" height="16" fill="#006c6c"/>
<rect x="55" y="325" width="16" height="16" fill="#6c4300"/>
<rect x="73" y="325" width="16" height="16" fill="#4c006c"/>
<rect x="91" y="325" width="16" height="16" fill="#006c6c"/>
<rect x="109" y="325" width="16" height="16" fill="#6c6c00"/>
<rect x="127" y="325" width="16" height="16" fill="#4c006c"/>
<rect x="145" y="325" width="16" height="16" fill="#6c4300"/>
<rect x="1" y="343" width="16" height="16" fill="#12246c"/>
<rect x="19" y="343" width="16" height="16" fill="#6c6c00"/>
<rect x="37" y="343" width="16" height="16" fill="#4c006c"/>
<rect x="55" y="343" width="16" height="16" fill="#4c006c"/>
<rect x="73" y="343" width="16" height="16" fill="#12246c"/>
<rect x="91" y="343" width="16" height="16" fill="#6c1212"/>
<rect x="127" y="343" width="16" height="16" fill="#6c1212"/>
<rect x="145" y="343" width="16" height="16" fill="#4c006c"/>
<rect x="163" y="343" width="16" height="16" fill="#6c4300"/>
<polyline points="9.2,11.3 9.7,15.1 10.5,19.8 11.6,25.0 13.0,30.5 14.8,36.2 16.9,42.1 19.3,48.1 21.9,54.1 24.6,60.1 27.4,66.1 30.2,72.2 33.0,78.2 35.5,84.3 37.9,90.4 40.0,96.5 41.1,102.5 41.3,108.6 41.3,114.7 41.1,120.8 41.5,126.8 41.7,132.9 42.3,139.0 42.6,145.1 42.8,151.1 42.9,157.2 42.9,163.3 42.3,169.4 42.0,175.4 41.3,181.5 40.3,187.6 39.2,193.7 38.8,199.7 39.0,205.8 39.1,211.9 39.1,218.0 39.6,224.0 40.0,230.1 40.1,236.2 40.7,242.3 41.6,248.3 42.7,254.4 43.2,260.5 43.7,266.6 43.5,266.6" fill="none" stroke="#ff6b6b" stroke-width="1" stroke-opacity="0.35" stroke-dasharray="2 3"/>
<g opacity="0"><animate attributeName="opacity" values="1;1;1;1;1;1;1;1;1;1;1;1;1;1;1;1;1;1;1;1;1;1;1;1;1;1;1;1;1;1;1;1;1;1;1;1;1;1;1;1;1;1;1;1;1" keyTimes="0.0000;0.0227;0.0455;0.0682;0.0909;0.1136;0.1364;0.1591;0.1818;0.2045;0.2273;0.2500;0.2727;0.2955;0.3182;0.3409;0.3636;0.3864;0.4091;0.4318;0.4545;0.4773;0.5000;0.5227;0.5455;0.5682;0.5909;0.6136;0.6364;0.6591;0.6818;0.7045;0.7273;0.7500;0.7727;0.7955;0.8182;0.8409;0.8636;0.8864;0.9091;0.9318;0.9545;0.9773;1.0000" dur="5.40s" repeatCount="indefinite" calcMode="discrete"/>
<animateTransform attributeName="transform" type="translate" values="0.2,2.3;0.7,6.1;1.5,10.8;2.6,16.0;4.0,21.5;5.8,27.2;7.9,33.1;10.3,39.1;12.9,45.1;15.6,51.1;18.4,57.1;21.2,63.2;24.0,69.2;26.6,75.3;28.9,81.4;31.1,87.5;32.1,93.5;32.3,99.6;32.3,105.7;32.1,111.8;32.5,117.8;32.7,123.9;33.3,130.0;33.6,136.1;33.8,142.1;33.9,148.2;33.9,154.3;33.3,160.4;33.0,166.4;32.3,172.5;31.3,178.6;30.2,184.7;29.8,190.7;30.0,196.8;30.1,202.9;30.1,209.0;30.6,215.0;31.0,221.1;31.1,227.2;31.7,233.3;32.6,239.3;33.7,245.4;34.2,251.5;34.7,257.6;34.5,257.6" keyTimes="0.0000;0.0227;0.0455;0.0682;0.0909;0.1136;0.1364;0.1591;0.1818;0.2045;0.2273;0.2500;0.2727;0.2955;0.3182;0.3409;0.3636;0.3864;0.4091;0.4318;0.4545;0.4773;0.5000;0.5227;0.5455;0.5682;0.5909;0.6136;0.6364;0.6591;0.6818;0.7045;0.7273;0.7500;0.7727;0.7955;0.8182;0.8409;0.8636;0.8864;0.9091;0.9318;0.9545;0.9773;1.0000" dur="5.40s" repeatCount="indefinite"/>
<path d="M 5.400000000000002 -9.0 A 21.599999999999998 18 0 0 1 48.599999999999994 -9.0" fill="none" stroke="#dcdce6" stroke-width="1.6"/>
<line x1="27.0" y1="-8.1" x2="27.0" y2="3.6" stroke="#8a8a95" stroke-width="0.8"/>
<rect x="1" y="1" width="16" height="16" fill="#2850f0" stroke="#ff6b6b" stroke-width="1.5" rx="1"/>
<rect x="1" y="19" width="16" height="16" fill="#2850f0" stroke="#ff6b6b" stroke-width="1.5" rx="1"/>
<rect x="19" y="19" width="16" height="16" fill="#2850f0" stroke="#ff6b6b" stroke-width="1.5" rx="1"/>
<rect x="37" y="19" width="16" height="16" fill="#2850f0" stroke="#ff6b6b" stroke-width="1.5" rx="1"/>
<text x="27.0" y="-14.4" fill="#ff6b6b" font-size="10" text-anchor="middle">#0</text>
<path d="M 18.0 1.8 L 18.0 16.2 L 1.8000000000000007 9.0 Z" fill="#ffaa3c" opacity="0"><animate attributeName="opacity" values="0;0;0;0;0;0;0;0;0;0;0;0;0;0;0;0;0;0;0;0;1;0;1;0;0;0;0;0;0;0;0;0;0;0;0;0;0;0;0;0;0;0;0;0;0" keyTimes="0.0000;0.0227;0.0455;0.0682;0.0909;0.1136;0.1364;0.1591;0.1818;0.2045;0.2273;0.2500;0.2727;0.2955;0.3182;0.3409;0.3636;0.3864;0.4091;0.4318;0.4545;0.4773;0.5000;0.5227;0.5455;0.5682;0.5909;0.6136;0.6364;0.6591;0.6818;0.7045;0.7273;0.7500;0.7727;0.7955;0.8182;0.8409;0.8636;0.8864;0.9091;0.9318;0.9545;0.9773;1.0000" dur="5.40s" repeatCount="indefinite" calcMode="discrete"/></path>
<path d="M 36.0 1.8 L 36.0 16.2 L 52.2 9.0 Z" fill="#ffaa3c" opacity="0"><animate attributeName="opacity" values="0;0;0;0;0;0;0;0;0;0;0;0;0;0;0;0;1;1;0;0;0;0;0;0;0;0;0;1;0;1;1;1;0;0;1;1;0;1;1;0;0;0;1;0;0" keyTimes="0.0000;0.0227;0.0455;0.0682;0.0909;0.1136;0.1364;0.1591;0.1818;0.2045;0.2273;0.2500;0.2727;0.2955;0.3182;0.3409;0.3636;0.3864;0.4091;0.4318;0.4545;0.4773;0.5000;0.5227;0.5455;0.5682;0.5909;0.6136;0.6364;0.6591;0.6818;0.7045;0.7273;0.7500;0.7727;0.7955;0.8182;0.8409;0.8636;0.8864;0.9091;0.9318;0.9545;0.9773;1.0000" dur="5.40s" repeatCount="indefinite" calcMode="discrete"/></path>
<path d="M 21.6 -1.8 L 32.4 -1.8 L 27.0 -16.2 Z" fill="#ffaa3c" opacity="0"><animate attributeName="opacity" values="0;0;0;0;0;0;0;0;0;0;0;0;0;0;0;0;0;0;0;0;0;0;0;0;0;0;0;0;0;0;0;0;0;0;0;0;0;0;0;0;0;0;0;0;0" keyTimes="0.0000;0.0227;0.0455;0.0682;0.0909;0.1136;0.1364;0.1591;0.1818;0.2045;0.2273;0.2500;0.2727;0.2955;0.3182;0.3409;0.3636;0.3864;0.4091;0.4318;0.4545;0.4773;0.5000;0.5227;0.5455;0.5682;0.5909;0.6136;0.6364;0.6591;0.6818;0.7045;0.7273;0.7500;0.7727;0.7955;0.8182;0.8409;0.8636;0.8864;0.9091;0.9318;0.9545;0.9773;1.0000" dur="5.40s" repeatCount="indefinite" calcMode="discrete"/></path>
</g>
<polyline points="63.2,-6.7 63.7,-2.9 64.5,1.8 65.6,7.0 67.0,12.5 68.8,18.2 70.9,24.1 73.3,30.1 75.9,36.1 78.6,42.1 81.4,48.1 84.2,54.2 87.0,60.2 89.5,66.3 91.9,72.4 94.0,78.5 95.9,84.5 97.3,90.6 98.4,96.7 99.2,102.8 99.6,108.8 99.8,114.9 99.7,121.0 99.5,127.1 99.2,133.1 98.8,139.2 98.6,145.3 98.4,151.4 98.5,157.4 98.8,163.5 99.4,169.6 100.4,175.7 101.6,181.7 103.3,187.8 105.3,193.9 107.5,200.0 107.5,200.0 107.5,200.0 107.5,200.0 107.5,200.0 107.5,200.0 107.5,200.0 107.5,200.0 107.5,200.0 107.5,200.0" fill="none" stroke="#5ac8fa" stroke-width="1" stroke-opacity="0.35" stroke-dasharray="2 3"/>
<g opacity="0"><animate attributeName="opacity" values="1;1;1;1;1;1;1;1;1;1;1;1;1;1;1;1;1;1;1;1;1;1;1;1;1;1;1;1;1;1;1;1;1;1;1;1;1;1;1;1;1;1;1;1;1" keyTimes="0.0000;0.0227;0.0455;0.0682;0.0909;0.1136;0.1364;0.1591;0.1818;0.2045;0.2273;0.2500;0.2727;0.2955;0.3182;0.3409;0.3636;0.3864;0.4091;0.4318;0.4545;0.4773;0.5000;0.5227;0.5455;0.5682;0.5909;0.6136;0.6364;0.6591;0.6818;0.7045;0.7273;0.7500;0.7727;0.7955;0.8182;0.8409;0.8636;0.8864;0.9091;0.9318;0.9545;0.9773;1.0000" dur="5.40s" repeatCount="indefinite" calcMode="discrete"/>
<animateTransform attributeName="transform" type="translate" values="54.2,-15.7;54.7,-11.9;55.5,-7.2;56.6,-2.0;58.0,3.5;59.8,9.2;61.9,15.1;64.3,21.1;66.9,27.1;69.6,33.1;72.4,39.1;75.2,45.2;78.0,51.2;80.5,57.3;82.9,63.4;85.0,69.5;86.9,75.5;88.3,81.6;89.4,87.7;90.2,93.8;90.6,99.8;90.8,105.9;90.7,112.0;90.5,118.1;90.2,124.1;89.8,130.2;89.6,136.3;89.4,142.4;89.5,148.4;89.8,154.5;90.4,160.6;91.4,166.7;92.6,172.7;94.3,178.8;96.3,184.9;98.5,191.0;98.5,191.0;98.5,191.0;98.5,191.0;98.5,191.0;98.5,191.0;98.5,191.0;98.5,191.0;98.5,191.0;98.5,191.0" keyTimes="0.0000;0.0227;0.0455;0.0682;0.0909;0.1136;0.1364;0.1591;0.1818;0.2045;0.2273;0.2500;0.2727;0.2955;0.3182;0.3409;0.3636;0.3864;0.4091;0.4318;0.4545;0.4773;0.5000;0.5227;0.5455;0.5682;0.5909;0.6136;0.6364;0.6591;0.6818;0.7045;0.7273;0.7500;0.7727;0.7955;0.8182;0.8409;0.8636;0.8864;0.9091;0.9318;0.9545;0.9773;1.0000" dur="5.40s" repeatCount="indefinite"/>
<path d="M 14.400000000000002 -9.0 A 21.599999999999998 18 0 0 1 57.599999999999994 -9.0" fill="none" stroke="#dcdce6" stroke-width="1.6"/>
<line x1="36.0" y1="-8.1" x2="36.0" y2="3.6" stroke="#8a8a95" stroke-width="0.8"/>
<rect x="1" y="19" width="16" height="16" fill="#00f0f0" stroke="#5ac8fa" stroke-width="1.5" rx="1"/>
<rect x="19" y="19" width="16" height="16" fill="#00f0f0" stroke="#5ac8fa" stroke-width="1.5" rx="1"/>
<rect x="37" y="19" width="16" height="16" fill="#00f0f0" stroke="#5ac8fa" stroke-width="1.5" rx="1"/>
<rect x="55" y="19" width="16" height="16" fill="#00f0f0" stroke="#5ac8fa" stroke-width="1.5" rx="1"/>
<text x="36.0" y="-14.4" fill="#5ac8fa" font-size="10" text-anchor="middle">#1</text>
<path d="M 27.0 1.8 L 27.0 16.2 L 10.8 9.0 Z" fill="#ffaa3c" opacity="0"><animate attributeName="opacity" values="0;0;0;0;0;0;0;0;0;0;0;0;0;0;0;0;0;0;0;0;0;0;0;0;0;0;0;0;0;0;0;0;0;0;0;0;0;0;0;0;0;0;0;0;0" keyTimes="0.0000;0.0227;0.0455;0.0682;0.0909;0.1136;0.1364;0.1591;0.1818;0.2045;0.2273;0.2500;0.2727;0.2955;0.3182;0.3409;0.3636;0.3864;0.4091;0.4318;0.4545;0.4773;0.5000;0.5227;0.5455;0.5682;0.5909;0.6136;0.6364;0.6591;0.6818;0.7045;0.7273;0.7500;0.7727;0.7955;0.8182;0.8409;0.8636;0.8864;0.9091;0.9318;0.9545;0.9773;1.0000" dur="5.40s" repeatCount="indefinite" calcMode="discrete"/></path>
<path d="M 45.0 1.8 L 45.0 16.2 L 61.2 9.0 Z" fill="#ffaa3c" opacity="0"><animate attributeName="opacity" values="0;0;0;0;0;0;0;0;0;0;0;0;0;0;0;0;0;0;0;0;0;0;0;0;0;0;0;0;0;0;0;0;0;0;0;0;0;0;0;0;0;0;0;0;0" keyTimes="0.0000;0.0227;0.0455;0.0682;0.0909;0.1136;0.1364;0.1591;0.1818;0.2045;0.2273;0.2500;0.2727;0.2955;0.3182;0.3409;0.3636;0.3864;0.4091;0.4318;0.4545;0.4773;0.5000;0.5227;0.5455;0.5682;0.5909;0.6136;0.6364;0.6591;0.6818;0.7045;0.7273;0.7500;0.7727;0.7955;0.8182;0.8409;0.8636;0.8864;0.9091;0.9318;0.9545;0.9773;1.0000" dur="5.40s" repeatCount="indefinite" calcMode="discrete"/></path>
<path d="M 30.6 -1.8 L 41.4 -1.8 L 36.0 -16.2 Z" fill="#ffaa3c" opacity="0"><animate attributeName="opacity" values="0;0;0;0;0;0;0;0;0;0;0;0;0;0;0;0;0;0;0;0;0;0;0;0;0;0;0;0;0;0;0;0;0;0;0;0;0;0;0;0;0;0;0;0;0" keyTimes="0.0000;0.0227;0.0455;0.0682;0.0909;0.1136;0.1364;0.1591;0.1818;0.2045;0.2273;0.2500;0.2727;0.2955;0.3182;0.3409;0.3636;0.3864;0.4091;0.4318;0.4545;0.4773;0.5000;0.5227;0.5455;0.5682;0.5909;0.6136;0.6364;0.6591;0.6818;0.7045;0.7273;0.7500;0.7727;0.7955;0.8182;0.8409;0.8636;0.8864;0.9091;0.9318;0.9545;0.9773;1.0000" dur="5.40s" repeatCount="indefinite" calcMode="discrete"/></path>
</g>
<polyline points="135.0,11.3 135.0,15.1 135.0,19.8 135.0,25.0 135.0,30.5 135.0,36.2 135.0,42.1 135.0,48.1 135.0,54.1 135.0,60.1 135.0,66.1 135.0,72.2 135.0,78.2 135.0,84.3 135.0,90.4 135.0,96.5 135.0,102.5 135.0,108.6 134.8,114.7 134.6,120.8 134.2,126.8 133.6,132.9 132.9,139.0 132.2,145.1 131.5,151.1 130.8,157.2 130.2,163.3 129.8,169.4 129.7,175.4 129.8,181.5 130.3,187.6 131.1,193.7 132.4,199.7 133.9,205.8 135.0,211.9 135.0,211.9 135.0,211.9 135.0,211.9 135.0,211.9 135.0,211.9 135.0,211.9 135.0,211.9 135.0,211.9 135.0,211.9 135.0,211.9" fill="none" stroke="#ffd24d" stroke-width="1" stroke-opacity="0.35" stroke-dasharray="2 3"/>
<g opacity="0"><animate attributeName="opacity" values="1;1;1;1;1;1;1;1;1;1;1;1;1;1;1;1;1;1;1;1;1;1;1;1;1;1;1;1;1;1;1;1;1;1;1;1;1;1;1;1;1;1;1;1;1" keyTimes="0.0000;0.0227;0.0455;0.0682;0.0909;0.1136;0.1364;0.1591;0.1818;0.2045;0.2273;0.2500;0.2727;0.2955;0.3182;0.3409;0.3636;0.3864;0.4091;0.4318;0.4545;0.4773;0.5000;0.5227;0.5455;0.5682;0.5909;0.6136;0.6364;0.6591;0.6818;0.7045;0.7273;0.7500;0.7727;0.7955;0.8182;0.8409;0.8636;0.8864;0.9091;0.9318;0.9545;0.9773;1.0000" dur="5.40s" repeatCount="indefinite" calcMode="discrete"/>
<animateTransform attributeName="transform" type="translate" values="126.0,2.3;126.0,6.1;126.0,10.8;126.0,16.0;126.0,21.5;126.0,27.2;126.0,33.1;126.0,39.1;126.0,45.1;126.0,51.1;126.0,57.1;126.0,63.2;126.0,69.2;126.0,75.3;126.0,81.4;126.0,87.5;126.0,93.5;126.0,99.6;125.8,105.7;125.6,111.8;125.2,117.8;124.6,123.9;123.9,130.0;123.2,136.1;122.5,142.1;121.8,148.2;121.2,154.3;120.8,160.4;120.7,166.4;120.8,172.5;121.3,178.6;122.1,184.7;123.4,190.7;124.9,196.8;126.0,202.9;126.0,202.9;126.0,202.9;126.0,202.9;126.0,202.9;126.0,202.9;126.0,202.9;126.0,202.9;126.0,202.9;126.0,202.9;126.0,202.9" keyTimes="0.0000;0.0227;0.0455;0.0682;0.0909;0.1136;0.1364;0.1591;0.1818;0.2045;0.2273;0.2500;0.2727;0.2955;0.3182;0.3409;0.3636;0.3864;0.4091;0.4318;0.4545;0.4773;0.5000;0.5227;0.5455;0.5682;0.5909;0.6136;0.6364;0.6591;0.6818;0.7045;0.7273;0.7500;0.7727;0.7955;0.8182;0.8409;0.8636;0.8864;0.9091;0.9318;0.9545;0.9773;1.0000" dur="5.40s" repeatCount="indefinite"/>
<path d="M 23.400000000000002 -9.0 A 21.599999999999998 18 0 0 1 66.6 -9.0" fill="none" stroke="#dcdce6" stroke-width="1.6"/>
<line x1="45.0" y1="-8.1" x2="45.0" y2="3.6" stroke="#8a8a95" stroke-width="0.8"/>
<rect x="37" y="1" width="16" height="16" fill="#00f0f0" stroke="#ffd24d" stroke-width="1.5" rx="1"/>
<rect x="37" y="19" width="16" height="16" fill="#00f0f0" stroke="#ffd24d" stroke-width="1.5" rx="1"/>
<rect x="37" y="37" width="16" height="16" fill="#00f0f0" stroke="#ffd24d" stroke-width="1.5" rx="1"/>
<rect x="37" y="55" width="16" height="16" fill="#00f0f0" stroke="#ffd24d" stroke-width="1.5" rx="1"/>
<text x="45.0" y="-14.4" fill="#ffd24d" font-size="10" text-anchor="middle">#2</text>
<path d="M 36.0 1.8 L 36.0 16.2 L 19.8 9.0 Z" fill="#ffaa3c" opacity="0"><animate attributeName="opacity" values="0;0;0;0;0;0;0;0;0;0;0;0;0;0;0;0;0;0;0;0;0;0;0;0;0;0;0;0;0;0;0;0;0;0;0;0;0;0;0;0;0;0;0;0;0" keyTimes="0.0000;0.0227;0.0455;0.0682;0.0909;0.1136;0.1364;0.1591;0.1818;0.2045;0.2273;0.2500;0.2727;0.2955;0.3182;0.3409;0.3636;0.3864;0.4091;0.4318;0.4545;0.4773;0.5000;0.5227;0.5455;0.5682;0.5909;0.6136;0.6364;0.6591;0.6818;0.7045;0.7273;0.7500;0.7727;0.7955;0.8182;0.8409;0.8636;0.8864;0.9091;0.9318;0.9545;0.9773;1.0000" dur="5.40s" repeatCount="indefinite" calcMode="discrete"/></path>
<path d="M 54.0 1.8 L 54.0 16.2 L 70.2 9.0 Z" fill="#ffaa3c" opacity="0"><animate attributeName="opacity" values="0;0;0;0;0;0;0;0;0;0;0;0;0;0;0;0;0;0;0;0;0;0;0;0;0;0;0;0;0;0;0;0;0;0;0;0;0;0;0;0;0;0;0;0;0" keyTimes="0.0000;0.0227;0.0455;0.0682;0.0909;0.1136;0.1364;0.1591;0.1818;0.2045;0.2273;0.2500;0.2727;0.2955;0.3182;0.3409;0.3636;0.3864;0.4091;0.4318;0.4545;0.4773;0.5000;0.5227;0.5455;0.5682;0.5909;0.6136;0.6364;0.6591;0.6818;0.7045;0.7273;0.7500;0.7727;0.7955;0.8182;0.8409;0.8636;0.8864;0.9091;0.9318;0.9545;0.9773;1.0000" dur="5.40s" repeatCount="indefinite" calcMode="discrete"/></path>
<path d="M 39.6 -1.8 L 50.4 -1.8 L 45.0 -16.2 Z" fill="#ffaa3c" opacity="0"><animate attributeName="opacity" values="0;0;0;0;0;0;0;0;0;0;0;0;0;0;0;0;0;0;0;0;0;0;0;0;0;0;0;0;0;0;0;0;0;0;0;0;0;0;0;0;0;0;0;0;0" keyTimes="0.0000;0.0227;0.0455;0.0682;0.0909;0.1136;0.1364;0.1591;0.1818;0.2045;0.2273;0.2500;0.2727;0.2955;0.3182;0.3409;0.3636;0.3864;0.4091;0.4318;0.4545;0.4773;0.5000;0.5227;0.5455;0.5682;0.5909;0.6136;0.6364;0.6591;0.6818;0.7045;0.7273;0.7500;0.7727;0.7955;0.8182;0.8409;0.8636;0.8864;0.9091;0.9318;0.9545;0.9773;1.0000" dur="5.40s" repeatCount="indefinite" calcMode="discrete"/></path>
</g>
<g opacity="0"><animate attributeName="opacity" values="1;1;1;1;1;1;1;1;1;1;1;1;1;1;1;1;1;1;1;1;1;1;1;1;1;1;1;1;1;1;1;1;1;1;1;1;1;1;1;1;1;1;1;1;1" keyTimes="0.0000;0.0227;0.0455;0.0682;0.0909;0.1136;0.1364;0.1591;0.1818;0.2045;0.2273;0.2500;0.2727;0.2955;0.3182;0.3409;0.3636;0.3864;0.4091;0.4318;0.4545;0.4773;0.5000;0.5227;0.5455;0.5682;0.5909;0.6136;0.6364;0.6591;0.6818;0.7045;0.7273;0.7500;0.7727;0.7955;0.8182;0.8409;0.8636;0.8864;0.9091;0.9318;0.9545;0.9773;1.0000" dur="5.40s" repeatCount="indefinite" calcMode="discrete"/>
<rect y="356" width="18" height="2.5" fill="#ff6b6b"><animate attributeName="x" values="36.0;36.0;36.0;36.0;36.0;36.0;36.0;36.0;36.0;36.0;36.0;36.0;36.0;36.0;36.0;36.0;36.0;36.0;36.0;36.0;36.0;36.0;36.0;36.0;36.0;36.0;36.0;36.0;36.0;36.0;36.0;36.0;36.0;36.0;36.0;36.0;36.0;36.0;36.0;36.0;36.0;36.0;36.0;36.0;36.0" keyTimes="0.0000;0.0227;0.0455;0.0682;0.0909;0.1136;0.1364;0.1591;0.1818;0.2045;0.2273;0.2500;0.2727;0.2955;0.3182;0.3409;0.3636;0.3864;0.4091;0.4318;0.4545;0.4773;0.5000;0.5227;0.5455;0.5682;0.5909;0.6136;0.6364;0.6591;0.6818;0.7045;0.7273;0.7500;0.7727;0.7955;0.8182;0.8409;0.8636;0.8864;0.9091;0.9318;0.9545;0.9773;1.0000" dur="5.40s" repeatCount="indefinite" calcMode="discrete"/></rect>
</g>
<g opacity="0"><animate attributeName="opacity" values="1;1;1;1;1;1;1;1;1;1;1;1;1;1;1;1;1;1;1;1;1;1;1;1;1;1;1;1;1;1;1;1;1;1;1;1;1;1;1;1;1;1;1;1;1" keyTimes="0.0000;0.0227;0.0455;0.0682;0.0909;0.1136;0.1364;0.1591;0.1818;0.2045;0.2273;0.2500;0.2727;0.2955;0.3182;0.3409;0.3636;0.3864;0.4091;0.4318;0.4545;0.4773;0.5000;0.5227;0.5455;0.5682;0.5909;0.6136;0.6364;0.6591;0.6818;0.7045;0.7273;0.7500;0.7727;0.7955;0.8182;0.8409;0.8636;0.8864;0.9091;0.9318;0.9545;0.9773;1.0000" dur="5.40s" repeatCount="indefinite" calcMode="discrete"/>
<rect y="353" width="18" height="2.5" fill="#5ac8fa"><animate attributeName="x" values="72.0;72.0;72.0;72.0;72.0;72.0;72.0;72.0;72.0;72.0;72.0;72.0;72.0;72.0;72.0;72.0;72.0;72.0;72.0;72.0;72.0;72.0;72.0;90.0;90.0;90.0;90.0;90.0;90.0;90.0;90.0;90.0;90.0;90.0;90.0;90.0;90.0;90.0;90.0;90.0;90.0;90.0;90.0;90.0;90.0" keyTimes="0.0000;0.0227;0.0455;0.0682;0.0909;0.1136;0.1364;0.1591;0.1818;0.2045;0.2273;0.2500;0.2727;0.2955;0.3182;0.3409;0.3636;0.3864;0.4091;0.4318;0.4545;0.4773;0.5000;0.5227;0.5455;0.5682;0.5909;0.6136;0.6364;0.6591;0.6818;0.7045;0.7273;0.7500;0.7727;0.7955;0.8182;0.8409;0.8636;0.8864;0.9091;0.9318;0.9545;0.9773;1.0000" dur="5.40s" repeatCount="indefinite" calcMode="discrete"/></rect>
</g>
<g opacity="0"><animate attributeName="opacity" values="1;1;1;1;1;1;1;1;1;1;1;1;1;1;1;1;1;1;1;1;1;1;1;1;1;1;1;1;1;1;1;1;1;1;1;1;1;1;1;1;1;1;1;1;1" keyTimes="0.0000;0.0227;0.0455;0.0682;0.0909;0.1136;0.1364;0.1591;0.1818;0.2045;0.2273;0.2500;0.2727;0.2955;0.3182;0.3409;0.3636;0.3864;0.4091;0.4318;0.4545;0.4773;0.5000;0.5227;0.5455;0.5682;0.5909;0.6136;0.6364;0.6591;0.6818;0.7045;0.7273;0.7500;0.7727;0.7955;0.8182;0.8409;0.8636;0.8864;0.9091;0.9318;0.9545;0.9773;1.0000" dur="5.40s" repeatCount="indefinite" calcMode="discrete"/>
<rect y="350" width="18" height="2.5" fill="#ffd24d"><animate attributeName="x" values="108.0;108.0;108.0;108.0;108.0;108.0;108.0;108.0;108.0;108.0;108.0;108.0;108.0;108.0;108.0;108.0;108.0;108.0;108.0;108.0;108.0;108.0;108.0;162.0;162.0;162.0;162.0;162.0;162.0;162.0;162.0;162.0;162.0;162.0;162.0;162.0;162.0;162.0;162.0;162.0;162.0;162.0;162.0;162.0;162.0" keyTimes="0.0000;0.0227;0.0455;0.0682;0.0909;0.1136;0.1364;0.1591;0.1818;0.2045;0.2273;0.2500;0.2727;0.2955;0.3182;0.3409;0.3636;0.3864;0.4091;0.4318;0.4545;0.4773;0.5000;0.5227;0.5455;0.5682;0.5909;0.6136;0.6364;0.6591;0.6818;0.7045;0.7273;0.7500;0.7727;0.7955;0.8182;0.8409;0.8636;0.8864;0.9091;0.9318;0.9545;0.9773;1.0000" dur="5.40s" repeatCount="indefinite" calcMode="discrete"/></rect>
</g>
</g>
<g transform="translate(0,386)">
<text x="2" y="8" fill="#9a9aa8" font-size="8">推論帯 上=VLM 下=VLA (幅=漂流tick)</text>
<rect x="0.0" y="11" width="64.0" height="5" fill="#c98bff" opacity="0.85" rx="1"><title>[1] qwen2.5vl:3b 50.6s</title></rect>
<rect x="64.0" y="17" width="28.0" height="5" fill="#5ac8fa" opacity="0.85" rx="1"><title>[2] smolvla 8.9s</title></rect>
<rect x="96.0" y="11" width="64.0" height="5" fill="#c98bff" opacity="0.85" rx="1"><title>[3] qwen2.5vl:3b 54.7s</title></rect>
<rect x="164.0" y="11" width="64.0" height="5" fill="#c98bff" opacity="0.85" rx="1"><title>[4] qwen2.5vl:3b 389.8s</title></rect>
</g></svg>